<mxfile host="app.diagrams.net" agent="Mozilla/5.0 (X11; Ubuntu; Linux x86_64; rv:137.0) Gecko/20100101 Firefox/137.0" version="27.1.5">
  <diagram name="Page-1" id="4U5YkGCh9nd2_-qvNMEP">
    <mxGraphModel dx="938" dy="548" grid="1" gridSize="10" guides="1" tooltips="1" connect="1" arrows="1" fold="1" page="1" pageScale="1" pageWidth="850" pageHeight="1100" math="0" shadow="0">
      <root>
        <mxCell id="0" />
        <mxCell id="1" parent="0" />
        <mxCell id="Hle4S8Di1_Md17zHJ1X8-78" value="" style="rounded=0;whiteSpace=wrap;html=1;fillColor=none;dashed=1;" parent="1" vertex="1">
          <mxGeometry x="205" y="200" width="110" height="200" as="geometry" />
        </mxCell>
        <mxCell id="Hle4S8Di1_Md17zHJ1X8-68" value="" style="rounded=0;whiteSpace=wrap;html=1;fillColor=none;dashed=1;" parent="1" vertex="1">
          <mxGeometry x="562.5" y="200" width="110" height="200" as="geometry" />
        </mxCell>
        <mxCell id="Hle4S8Di1_Md17zHJ1X8-77" value="" style="rounded=0;whiteSpace=wrap;html=1;fillColor=none;dashed=1;" parent="1" vertex="1">
          <mxGeometry x="392.5" y="200" width="110" height="200" as="geometry" />
        </mxCell>
        <mxCell id="Hle4S8Di1_Md17zHJ1X8-1" value="0/1" style="ellipse;whiteSpace=wrap;html=1;aspect=fixed;fontSize=15;fillColor=#f8cecc;strokeColor=#b85450;fontStyle=1" parent="1" vertex="1">
          <mxGeometry x="230" y="220" width="60" height="60" as="geometry" />
        </mxCell>
        <mxCell id="Hle4S8Di1_Md17zHJ1X8-2" value="0/1" style="ellipse;whiteSpace=wrap;html=1;aspect=fixed;fontSize=15;fillColor=#f8cecc;strokeColor=#b85450;fontStyle=1" parent="1" vertex="1">
          <mxGeometry x="230" y="310" width="60" height="60" as="geometry" />
        </mxCell>
        <mxCell id="Hle4S8Di1_Md17zHJ1X8-15" value="" style="edgeStyle=orthogonalEdgeStyle;rounded=0;orthogonalLoop=1;jettySize=auto;html=1;fontStyle=1" parent="1" target="Hle4S8Di1_Md17zHJ1X8-1" edge="1">
          <mxGeometry relative="1" as="geometry">
            <mxPoint x="160" y="250" as="sourcePoint" />
          </mxGeometry>
        </mxCell>
        <mxCell id="Hle4S8Di1_Md17zHJ1X8-16" value="" style="edgeStyle=orthogonalEdgeStyle;rounded=0;orthogonalLoop=1;jettySize=auto;html=1;fontStyle=1" parent="1" target="Hle4S8Di1_Md17zHJ1X8-2" edge="1">
          <mxGeometry relative="1" as="geometry">
            <mxPoint x="160" y="340" as="sourcePoint" />
          </mxGeometry>
        </mxCell>
        <mxCell id="Hle4S8Di1_Md17zHJ1X8-32" value="0.5" style="ellipse;whiteSpace=wrap;html=1;aspect=fixed;fontSize=15;fillColor=#f5f5f5;strokeColor=#666666;fontStyle=1;fontColor=#333333;" parent="1" vertex="1">
          <mxGeometry x="417.5" y="220" width="60" height="60" as="geometry" />
        </mxCell>
        <mxCell id="Hle4S8Di1_Md17zHJ1X8-33" value="-1.5" style="ellipse;whiteSpace=wrap;html=1;aspect=fixed;fontSize=15;fillColor=#f5f5f5;strokeColor=#666666;fontStyle=1;fontColor=#333333;" parent="1" vertex="1">
          <mxGeometry x="417.5" y="310" width="60" height="60" as="geometry" />
        </mxCell>
        <mxCell id="Hle4S8Di1_Md17zHJ1X8-37" value="1.5" style="ellipse;whiteSpace=wrap;html=1;aspect=fixed;fontSize=15;fillColor=#f8cecc;strokeColor=#b85450;fontStyle=1" parent="1" vertex="1">
          <mxGeometry x="590" y="260" width="60" height="60" as="geometry" />
        </mxCell>
        <mxCell id="Hle4S8Di1_Md17zHJ1X8-38" value="" style="endArrow=classic;html=1;rounded=0;exitX=1;exitY=0.5;exitDx=0;exitDy=0;" parent="1" source="Hle4S8Di1_Md17zHJ1X8-1" target="Hle4S8Di1_Md17zHJ1X8-32" edge="1">
          <mxGeometry width="50" height="50" relative="1" as="geometry">
            <mxPoint x="310" y="260" as="sourcePoint" />
            <mxPoint x="360" y="210" as="targetPoint" />
          </mxGeometry>
        </mxCell>
        <mxCell id="Hle4S8Di1_Md17zHJ1X8-39" value="" style="endArrow=classic;html=1;rounded=0;exitX=1;exitY=0.5;exitDx=0;exitDy=0;" parent="1" source="Hle4S8Di1_Md17zHJ1X8-2" target="Hle4S8Di1_Md17zHJ1X8-32" edge="1">
          <mxGeometry width="50" height="50" relative="1" as="geometry">
            <mxPoint x="360" y="350" as="sourcePoint" />
            <mxPoint x="410" y="300" as="targetPoint" />
          </mxGeometry>
        </mxCell>
        <mxCell id="Hle4S8Di1_Md17zHJ1X8-41" value="" style="endArrow=classic;html=1;rounded=0;exitX=1;exitY=0.5;exitDx=0;exitDy=0;" parent="1" source="Hle4S8Di1_Md17zHJ1X8-1" target="Hle4S8Di1_Md17zHJ1X8-33" edge="1">
          <mxGeometry width="50" height="50" relative="1" as="geometry">
            <mxPoint x="300" y="260" as="sourcePoint" />
            <mxPoint x="431" y="219" as="targetPoint" />
          </mxGeometry>
        </mxCell>
        <mxCell id="Hle4S8Di1_Md17zHJ1X8-42" value="" style="endArrow=classic;html=1;rounded=0;exitX=1;exitY=0.5;exitDx=0;exitDy=0;" parent="1" source="Hle4S8Di1_Md17zHJ1X8-2" target="Hle4S8Di1_Md17zHJ1X8-33" edge="1">
          <mxGeometry width="50" height="50" relative="1" as="geometry">
            <mxPoint x="300" y="350" as="sourcePoint" />
            <mxPoint x="437" y="230" as="targetPoint" />
          </mxGeometry>
        </mxCell>
        <mxCell id="Hle4S8Di1_Md17zHJ1X8-52" value="" style="endArrow=classic;html=1;rounded=0;exitX=1;exitY=0.5;exitDx=0;exitDy=0;" parent="1" source="Hle4S8Di1_Md17zHJ1X8-32" target="Hle4S8Di1_Md17zHJ1X8-37" edge="1">
          <mxGeometry width="50" height="50" relative="1" as="geometry">
            <mxPoint x="490" y="210" as="sourcePoint" />
            <mxPoint x="624" y="285" as="targetPoint" />
          </mxGeometry>
        </mxCell>
        <mxCell id="Hle4S8Di1_Md17zHJ1X8-54" value="" style="endArrow=classic;html=1;rounded=0;exitX=1;exitY=0.5;exitDx=0;exitDy=0;" parent="1" source="Hle4S8Di1_Md17zHJ1X8-33" target="Hle4S8Di1_Md17zHJ1X8-37" edge="1">
          <mxGeometry width="50" height="50" relative="1" as="geometry">
            <mxPoint x="490" y="300" as="sourcePoint" />
            <mxPoint x="620" y="300" as="targetPoint" />
          </mxGeometry>
        </mxCell>
        <mxCell id="Hle4S8Di1_Md17zHJ1X8-59" value="" style="endArrow=classic;html=1;rounded=0;exitX=1;exitY=0.5;exitDx=0;exitDy=0;" parent="1" edge="1">
          <mxGeometry width="50" height="50" relative="1" as="geometry">
            <mxPoint x="650" y="289.5" as="sourcePoint" />
            <mxPoint x="720" y="289.5" as="targetPoint" />
          </mxGeometry>
        </mxCell>
        <mxCell id="Hle4S8Di1_Md17zHJ1X8-69" value="Input Layer" style="text;html=1;align=center;verticalAlign=middle;whiteSpace=wrap;rounded=0;fontSize=15;" parent="1" vertex="1">
          <mxGeometry x="227.5" y="140" width="65" height="30" as="geometry" />
        </mxCell>
        <mxCell id="Hle4S8Di1_Md17zHJ1X8-70" style="edgeStyle=orthogonalEdgeStyle;rounded=0;orthogonalLoop=1;jettySize=auto;html=1;exitX=0.5;exitY=1;exitDx=0;exitDy=0;" parent="1" source="Hle4S8Di1_Md17zHJ1X8-69" target="Hle4S8Di1_Md17zHJ1X8-69" edge="1">
          <mxGeometry relative="1" as="geometry" />
        </mxCell>
        <mxCell id="Hle4S8Di1_Md17zHJ1X8-72" value="Hidden Layer" style="text;html=1;align=center;verticalAlign=middle;whiteSpace=wrap;rounded=0;fontSize=15;" parent="1" vertex="1">
          <mxGeometry x="410" y="140" width="65" height="30" as="geometry" />
        </mxCell>
        <mxCell id="Hle4S8Di1_Md17zHJ1X8-73" value="Output Layer" style="text;html=1;align=center;verticalAlign=middle;whiteSpace=wrap;rounded=0;fontSize=15;" parent="1" vertex="1">
          <mxGeometry x="590" y="140" width="65" height="30" as="geometry" />
        </mxCell>
        <mxCell id="Hle4S8Di1_Md17zHJ1X8-80" value="Input A" style="text;html=1;align=center;verticalAlign=middle;whiteSpace=wrap;rounded=0;fontSize=15;" parent="1" vertex="1">
          <mxGeometry x="100" y="235" width="60" height="30" as="geometry" />
        </mxCell>
        <mxCell id="Hle4S8Di1_Md17zHJ1X8-81" value="Input B" style="text;html=1;align=center;verticalAlign=middle;whiteSpace=wrap;rounded=0;fontSize=15;" parent="1" vertex="1">
          <mxGeometry x="100" y="325" width="60" height="30" as="geometry" />
        </mxCell>
        <mxCell id="Hle4S8Di1_Md17zHJ1X8-83" value="Output" style="text;html=1;align=center;verticalAlign=middle;whiteSpace=wrap;rounded=0;fontSize=15;" parent="1" vertex="1">
          <mxGeometry x="730" y="275" width="60" height="30" as="geometry" />
        </mxCell>
        <mxCell id="Px8Cjcg0aNRF6KFYVi__-1" value="1" style="text;html=1;align=center;verticalAlign=middle;whiteSpace=wrap;rounded=0;fontSize=15;" vertex="1" parent="1">
          <mxGeometry x="315" y="220" width="60" height="30" as="geometry" />
        </mxCell>
        <mxCell id="Px8Cjcg0aNRF6KFYVi__-2" value="-1" style="text;html=1;align=center;verticalAlign=middle;whiteSpace=wrap;rounded=0;fontSize=15;" vertex="1" parent="1">
          <mxGeometry x="310" y="340" width="60" height="30" as="geometry" />
        </mxCell>
        <mxCell id="Px8Cjcg0aNRF6KFYVi__-4" value="1" style="text;html=1;align=center;verticalAlign=middle;whiteSpace=wrap;rounded=0;fontSize=15;" vertex="1" parent="1">
          <mxGeometry x="350" y="260" width="60" height="30" as="geometry" />
        </mxCell>
        <mxCell id="Px8Cjcg0aNRF6KFYVi__-5" value="-1" style="text;html=1;align=center;verticalAlign=middle;whiteSpace=wrap;rounded=0;fontSize=15;" vertex="1" parent="1">
          <mxGeometry x="350" y="295" width="60" height="30" as="geometry" />
        </mxCell>
        <mxCell id="Px8Cjcg0aNRF6KFYVi__-6" value="1" style="text;html=1;align=center;verticalAlign=middle;whiteSpace=wrap;rounded=0;fontSize=15;" vertex="1" parent="1">
          <mxGeometry x="502.5" y="235" width="60" height="30" as="geometry" />
        </mxCell>
        <mxCell id="Px8Cjcg0aNRF6KFYVi__-7" value="1" style="text;html=1;align=center;verticalAlign=middle;whiteSpace=wrap;rounded=0;fontSize=15;" vertex="1" parent="1">
          <mxGeometry x="502.5" y="320" width="60" height="30" as="geometry" />
        </mxCell>
      </root>
    </mxGraphModel>
  </diagram>
</mxfile>
